<mxfile host="app.diagrams.net" modified="2024-01-04T13:13:43.520Z" agent="Mozilla/5.0 (Windows NT 10.0; Win64; x64) AppleWebKit/537.36 (KHTML, like Gecko) Chrome/120.0.0.0 Safari/537.36" version="22.1.16" etag="ngoKK-tynnd4k0ObFRUW" type="device">
  <diagram id="FcfFNJdL2DwspyZMu3Ot" name="Sayfa -1">
    <mxGraphModel dx="922" dy="651" grid="1" gridSize="10" guides="1" tooltips="1" connect="1" arrows="1" fold="1" page="0" pageScale="1" pageWidth="827" pageHeight="1169" background="none" math="0" shadow="0">
      <root>
        <mxCell id="0" />
        <mxCell id="1" parent="0" />
        <mxCell id="node0" value="&lt;p style=&quot;margin:0px;margin-top:4px;text-align:center;&quot;&gt;&lt;b&gt;Transcript&lt;/b&gt;&lt;/p&gt;&lt;hr size=&quot;1&quot;&gt;&lt;p style=&quot;margin:0 0 0 4px;line-height:1.6;&quot;&gt; __semester: Integer&lt;br&gt; __cgpa: Integer&lt;br&gt; __completedCredits: Integer&lt;br&gt; __student: Student&lt;br&gt; __courseGradeMap: Map&lt;br&gt; __takenCredits: Integer&lt;br&gt; __studentCourses: List&lt;/p&gt;&lt;hr size=&quot;1&quot;&gt;&lt;p style=&quot;margin:0 0 0 4px;line-height:1.6;&quot;&gt; __init__(self, student): &lt;br&gt; calculateValues(self): &lt;br&gt; calculateCgpa(self): &lt;br&gt; calculateTakenCredits(self): &lt;br&gt; calculateCompletedCredits(self): &lt;br&gt; showTranscript(self): &lt;br&gt; courseStatusCheck(self): &lt;br&gt; getStudentCourses(self): &lt;br&gt; setStudentCourses(self, studentCourses): &lt;br&gt; getTakenCredits(self): &lt;br&gt; setTakenCredits(self, takenCredits): &lt;br&gt; getCompletedCredits(self): &lt;br&gt; getCgpa(self): &lt;br&gt; setStudent(self, student): &lt;br&gt; getCourseGradeMap(self): &lt;br&gt; setCourseGradeMap(self, courseGradeMap): &lt;/p&gt;" style="verticalAlign=top;align=left;overflow=fill;fontSize=14;fontFamily=Helvetica;html=1;rounded=0;shadow=0;comic=0;labelBackgroundColor=none;strokeWidth=1;" parent="1" vertex="1">
          <mxGeometry x="-138" y="226" width="308" height="592" as="geometry" />
        </mxCell>
      </root>
    </mxGraphModel>
  </diagram>
</mxfile>
